<mxfile host="app.diagrams.net" modified="2021-09-19T02:06:10.282Z" agent="5.0 (X11; Linux x86_64) AppleWebKit/537.36 (KHTML, like Gecko) Chrome/93.0.4577.82 Safari/537.36" etag="hWMz7p7r4D9YrcuDggtX" version="15.2.9" type="github">
  <diagram id="z8tA9fzvjswGwNnZUVDG" name="Page-1">
    <mxGraphModel dx="3155" dy="2375" grid="0" gridSize="10" guides="1" tooltips="1" connect="1" arrows="1" fold="1" page="0" pageScale="1" pageWidth="850" pageHeight="1100" math="0" shadow="0">
      <root>
        <mxCell id="0" />
        <mxCell id="1" parent="0" />
        <mxCell id="PHDZe1s5qyJXQ7fVR7Sn-13" value="N" style="edgeStyle=orthogonalEdgeStyle;rounded=0;orthogonalLoop=1;jettySize=auto;html=1;entryX=0;entryY=0.5;entryDx=0;entryDy=0;" parent="1" source="PHDZe1s5qyJXQ7fVR7Sn-1" target="PHDZe1s5qyJXQ7fVR7Sn-12" edge="1">
          <mxGeometry relative="1" as="geometry" />
        </mxCell>
        <mxCell id="PHDZe1s5qyJXQ7fVR7Sn-34" value="N" style="edgeStyle=orthogonalEdgeStyle;rounded=0;orthogonalLoop=1;jettySize=auto;html=1;exitX=0.5;exitY=1;exitDx=0;exitDy=0;" parent="1" source="PHDZe1s5qyJXQ7fVR7Sn-1" target="PHDZe1s5qyJXQ7fVR7Sn-33" edge="1">
          <mxGeometry relative="1" as="geometry" />
        </mxCell>
        <mxCell id="jMFC31TbGM9YnoEHQVQy-81" value="N" style="edgeStyle=orthogonalEdgeStyle;rounded=0;orthogonalLoop=1;jettySize=auto;html=1;entryX=1;entryY=0.5;entryDx=0;entryDy=0;" edge="1" parent="1" source="PHDZe1s5qyJXQ7fVR7Sn-1" target="jMFC31TbGM9YnoEHQVQy-80">
          <mxGeometry relative="1" as="geometry" />
        </mxCell>
        <mxCell id="jMFC31TbGM9YnoEHQVQy-103" value="N" style="edgeStyle=orthogonalEdgeStyle;rounded=0;orthogonalLoop=1;jettySize=auto;html=1;entryX=1;entryY=0.5;entryDx=0;entryDy=0;" edge="1" parent="1" source="PHDZe1s5qyJXQ7fVR7Sn-1" target="jMFC31TbGM9YnoEHQVQy-97">
          <mxGeometry relative="1" as="geometry">
            <Array as="points">
              <mxPoint x="413" y="45" />
              <mxPoint x="247" y="45" />
              <mxPoint x="247" y="203" />
            </Array>
          </mxGeometry>
        </mxCell>
        <mxCell id="jMFC31TbGM9YnoEHQVQy-104" value="N" style="edgeStyle=orthogonalEdgeStyle;rounded=0;orthogonalLoop=1;jettySize=auto;html=1;entryX=0.5;entryY=0;entryDx=0;entryDy=0;" edge="1" parent="1" source="PHDZe1s5qyJXQ7fVR7Sn-1" target="jMFC31TbGM9YnoEHQVQy-100">
          <mxGeometry relative="1" as="geometry">
            <Array as="points">
              <mxPoint x="479" y="77" />
              <mxPoint x="492" y="77" />
            </Array>
          </mxGeometry>
        </mxCell>
        <mxCell id="jMFC31TbGM9YnoEHQVQy-106" value="N" style="edgeStyle=orthogonalEdgeStyle;rounded=0;orthogonalLoop=1;jettySize=auto;html=1;entryX=0.5;entryY=0;entryDx=0;entryDy=0;" edge="1" parent="1" source="PHDZe1s5qyJXQ7fVR7Sn-1" target="jMFC31TbGM9YnoEHQVQy-105">
          <mxGeometry relative="1" as="geometry">
            <mxPoint x="615" y="323" as="targetPoint" />
            <Array as="points">
              <mxPoint x="488" y="37" />
              <mxPoint x="619" y="37" />
            </Array>
          </mxGeometry>
        </mxCell>
        <mxCell id="jMFC31TbGM9YnoEHQVQy-107" value="1" style="edgeStyle=orthogonalEdgeStyle;rounded=0;orthogonalLoop=1;jettySize=auto;html=1;entryX=1;entryY=0.5;entryDx=0;entryDy=0;" edge="1" parent="1" source="PHDZe1s5qyJXQ7fVR7Sn-1" target="jMFC31TbGM9YnoEHQVQy-96">
          <mxGeometry relative="1" as="geometry">
            <Array as="points">
              <mxPoint x="821" y="-26" />
              <mxPoint x="821" y="-247" />
            </Array>
          </mxGeometry>
        </mxCell>
        <mxCell id="PHDZe1s5qyJXQ7fVR7Sn-1" value="Pessoa" style="rounded=0;whiteSpace=wrap;html=1;" parent="1" vertex="1">
          <mxGeometry x="390" y="-40" width="120" height="60" as="geometry" />
        </mxCell>
        <mxCell id="PHDZe1s5qyJXQ7fVR7Sn-2" value="&lt;u&gt;ID Num&lt;/u&gt;" style="ellipse;whiteSpace=wrap;html=1;" parent="1" vertex="1">
          <mxGeometry x="129" y="-139" width="70" height="50" as="geometry" />
        </mxCell>
        <mxCell id="PHDZe1s5qyJXQ7fVR7Sn-4" value="Data de nascimento" style="ellipse;whiteSpace=wrap;html=1;" parent="1" vertex="1">
          <mxGeometry x="209" y="-139" width="120" height="50" as="geometry" />
        </mxCell>
        <mxCell id="PHDZe1s5qyJXQ7fVR7Sn-5" value="Idade" style="ellipse;whiteSpace=wrap;html=1;dashed=1;" parent="1" vertex="1">
          <mxGeometry x="339" y="-139" width="70" height="50" as="geometry" />
        </mxCell>
        <mxCell id="PHDZe1s5qyJXQ7fVR7Sn-6" value="Sexo" style="ellipse;whiteSpace=wrap;html=1;" parent="1" vertex="1">
          <mxGeometry x="419" y="-139" width="70" height="50" as="geometry" />
        </mxCell>
        <mxCell id="PHDZe1s5qyJXQ7fVR7Sn-7" value="" style="endArrow=none;html=1;exitX=0.614;exitY=1.06;exitDx=0;exitDy=0;exitPerimeter=0;entryX=0.5;entryY=0;entryDx=0;entryDy=0;" parent="1" source="PHDZe1s5qyJXQ7fVR7Sn-2" target="PHDZe1s5qyJXQ7fVR7Sn-1" edge="1">
          <mxGeometry width="50" height="50" relative="1" as="geometry">
            <mxPoint x="420" y="250" as="sourcePoint" />
            <mxPoint x="470" y="200" as="targetPoint" />
          </mxGeometry>
        </mxCell>
        <mxCell id="PHDZe1s5qyJXQ7fVR7Sn-8" value="" style="endArrow=none;html=1;entryX=0.5;entryY=0;entryDx=0;entryDy=0;exitX=0.5;exitY=1;exitDx=0;exitDy=0;" parent="1" source="PHDZe1s5qyJXQ7fVR7Sn-4" target="PHDZe1s5qyJXQ7fVR7Sn-1" edge="1">
          <mxGeometry width="50" height="50" relative="1" as="geometry">
            <mxPoint x="420" y="250" as="sourcePoint" />
            <mxPoint x="470" y="200" as="targetPoint" />
          </mxGeometry>
        </mxCell>
        <mxCell id="PHDZe1s5qyJXQ7fVR7Sn-9" value="" style="endArrow=none;html=1;entryX=0.5;entryY=0;entryDx=0;entryDy=0;exitX=0.5;exitY=1;exitDx=0;exitDy=0;" parent="1" source="PHDZe1s5qyJXQ7fVR7Sn-5" target="PHDZe1s5qyJXQ7fVR7Sn-1" edge="1">
          <mxGeometry width="50" height="50" relative="1" as="geometry">
            <mxPoint x="420" y="250" as="sourcePoint" />
            <mxPoint x="470" y="200" as="targetPoint" />
          </mxGeometry>
        </mxCell>
        <mxCell id="PHDZe1s5qyJXQ7fVR7Sn-10" value="" style="endArrow=none;html=1;entryX=0.5;entryY=0;entryDx=0;entryDy=0;exitX=0.5;exitY=1;exitDx=0;exitDy=0;" parent="1" source="PHDZe1s5qyJXQ7fVR7Sn-6" target="PHDZe1s5qyJXQ7fVR7Sn-1" edge="1">
          <mxGeometry width="50" height="50" relative="1" as="geometry">
            <mxPoint x="160" y="250" as="sourcePoint" />
            <mxPoint x="210" y="200" as="targetPoint" />
          </mxGeometry>
        </mxCell>
        <mxCell id="PHDZe1s5qyJXQ7fVR7Sn-14" value="1" style="edgeStyle=orthogonalEdgeStyle;rounded=0;orthogonalLoop=1;jettySize=auto;html=1;exitX=0;exitY=0.5;exitDx=0;exitDy=0;" parent="1" source="PHDZe1s5qyJXQ7fVR7Sn-11" target="PHDZe1s5qyJXQ7fVR7Sn-12" edge="1">
          <mxGeometry relative="1" as="geometry" />
        </mxCell>
        <mxCell id="PHDZe1s5qyJXQ7fVR7Sn-29" value="1" style="edgeStyle=orthogonalEdgeStyle;rounded=0;orthogonalLoop=1;jettySize=auto;html=1;entryX=0.5;entryY=0;entryDx=0;entryDy=0;" parent="1" source="PHDZe1s5qyJXQ7fVR7Sn-11" target="PHDZe1s5qyJXQ7fVR7Sn-28" edge="1">
          <mxGeometry relative="1" as="geometry" />
        </mxCell>
        <mxCell id="jMFC31TbGM9YnoEHQVQy-16" value="N" style="edgeStyle=orthogonalEdgeStyle;rounded=0;orthogonalLoop=1;jettySize=auto;html=1;entryX=0;entryY=0.5;entryDx=0;entryDy=0;" edge="1" parent="1" source="PHDZe1s5qyJXQ7fVR7Sn-11" target="jMFC31TbGM9YnoEHQVQy-15">
          <mxGeometry relative="1" as="geometry" />
        </mxCell>
        <mxCell id="jMFC31TbGM9YnoEHQVQy-31" value="1" style="edgeStyle=orthogonalEdgeStyle;rounded=0;orthogonalLoop=1;jettySize=auto;html=1;entryX=0.5;entryY=1;entryDx=0;entryDy=0;" edge="1" parent="1" source="PHDZe1s5qyJXQ7fVR7Sn-11" target="jMFC31TbGM9YnoEHQVQy-30">
          <mxGeometry relative="1" as="geometry" />
        </mxCell>
        <mxCell id="PHDZe1s5qyJXQ7fVR7Sn-11" value="Domicilio" style="rounded=0;whiteSpace=wrap;html=1;" parent="1" vertex="1">
          <mxGeometry x="1110" y="200" width="120" height="60" as="geometry" />
        </mxCell>
        <mxCell id="PHDZe1s5qyJXQ7fVR7Sn-12" value="Mora" style="rhombus;whiteSpace=wrap;html=1;" parent="1" vertex="1">
          <mxGeometry x="810" y="200" width="90" height="60" as="geometry" />
        </mxCell>
        <mxCell id="PHDZe1s5qyJXQ7fVR7Sn-15" value="&lt;u&gt;ID tipo&lt;/u&gt;" style="ellipse;whiteSpace=wrap;html=1;" parent="1" vertex="1">
          <mxGeometry x="976" y="80" width="70" height="50" as="geometry" />
        </mxCell>
        <mxCell id="PHDZe1s5qyJXQ7fVR7Sn-18" value="" style="endArrow=none;html=1;entryX=0.5;entryY=0;entryDx=0;entryDy=0;exitX=0.5;exitY=1;exitDx=0;exitDy=0;" parent="1" source="PHDZe1s5qyJXQ7fVR7Sn-15" target="PHDZe1s5qyJXQ7fVR7Sn-11" edge="1">
          <mxGeometry width="50" height="50" relative="1" as="geometry">
            <mxPoint x="660" y="360" as="sourcePoint" />
            <mxPoint x="710" y="310" as="targetPoint" />
          </mxGeometry>
        </mxCell>
        <mxCell id="PHDZe1s5qyJXQ7fVR7Sn-19" value="Tipo de Ã¡rea" style="ellipse;whiteSpace=wrap;html=1;" parent="1" vertex="1">
          <mxGeometry x="1082" y="80" width="70" height="50" as="geometry" />
        </mxCell>
        <mxCell id="PHDZe1s5qyJXQ7fVR7Sn-20" value="Numero de Moradores" style="ellipse;whiteSpace=wrap;html=1;" parent="1" vertex="1">
          <mxGeometry x="1220" y="80" width="90" height="50" as="geometry" />
        </mxCell>
        <mxCell id="PHDZe1s5qyJXQ7fVR7Sn-30" value="N" style="edgeStyle=orthogonalEdgeStyle;rounded=0;orthogonalLoop=1;jettySize=auto;html=1;entryX=0.5;entryY=1;entryDx=0;entryDy=0;" parent="1" source="PHDZe1s5qyJXQ7fVR7Sn-22" target="PHDZe1s5qyJXQ7fVR7Sn-28" edge="1">
          <mxGeometry relative="1" as="geometry" />
        </mxCell>
        <mxCell id="jMFC31TbGM9YnoEHQVQy-120" value="N" style="edgeStyle=orthogonalEdgeStyle;rounded=0;orthogonalLoop=1;jettySize=auto;html=1;entryX=0.5;entryY=0;entryDx=0;entryDy=0;" edge="1" parent="1" source="PHDZe1s5qyJXQ7fVR7Sn-22" target="jMFC31TbGM9YnoEHQVQy-119">
          <mxGeometry relative="1" as="geometry">
            <Array as="points">
              <mxPoint x="1479" y="552" />
            </Array>
          </mxGeometry>
        </mxCell>
        <mxCell id="jMFC31TbGM9YnoEHQVQy-123" value="N" style="edgeStyle=orthogonalEdgeStyle;rounded=0;orthogonalLoop=1;jettySize=auto;html=1;" edge="1" parent="1" source="PHDZe1s5qyJXQ7fVR7Sn-22" target="jMFC31TbGM9YnoEHQVQy-122">
          <mxGeometry relative="1" as="geometry" />
        </mxCell>
        <mxCell id="PHDZe1s5qyJXQ7fVR7Sn-22" value="Estado" style="rounded=0;whiteSpace=wrap;html=1;" parent="1" vertex="1">
          <mxGeometry x="1110" y="500" width="120" height="60" as="geometry" />
        </mxCell>
        <mxCell id="PHDZe1s5qyJXQ7fVR7Sn-25" value="&lt;u&gt;Codifo Estado&lt;/u&gt;" style="ellipse;whiteSpace=wrap;html=1;" parent="1" vertex="1">
          <mxGeometry x="1135" y="600" width="70" height="50" as="geometry" />
        </mxCell>
        <mxCell id="PHDZe1s5qyJXQ7fVR7Sn-26" value="" style="endArrow=none;html=1;entryX=0.5;entryY=0;entryDx=0;entryDy=0;exitX=0.5;exitY=1;exitDx=0;exitDy=0;" parent="1" source="PHDZe1s5qyJXQ7fVR7Sn-19" target="PHDZe1s5qyJXQ7fVR7Sn-11" edge="1">
          <mxGeometry width="50" height="50" relative="1" as="geometry">
            <mxPoint x="660" y="360" as="sourcePoint" />
            <mxPoint x="710" y="310" as="targetPoint" />
          </mxGeometry>
        </mxCell>
        <mxCell id="PHDZe1s5qyJXQ7fVR7Sn-27" value="" style="endArrow=none;html=1;entryX=0.5;entryY=0;entryDx=0;entryDy=0;exitX=0.5;exitY=1;exitDx=0;exitDy=0;" parent="1" source="PHDZe1s5qyJXQ7fVR7Sn-20" target="PHDZe1s5qyJXQ7fVR7Sn-11" edge="1">
          <mxGeometry width="50" height="50" relative="1" as="geometry">
            <mxPoint x="660" y="360" as="sourcePoint" />
            <mxPoint x="710" y="310" as="targetPoint" />
          </mxGeometry>
        </mxCell>
        <mxCell id="PHDZe1s5qyJXQ7fVR7Sn-28" value="EstÃ¡" style="rhombus;whiteSpace=wrap;html=1;" parent="1" vertex="1">
          <mxGeometry x="1125" y="330" width="90" height="60" as="geometry" />
        </mxCell>
        <mxCell id="PHDZe1s5qyJXQ7fVR7Sn-31" value="" style="endArrow=none;html=1;entryX=0.5;entryY=1;entryDx=0;entryDy=0;entryPerimeter=0;exitX=0.5;exitY=0;exitDx=0;exitDy=0;" parent="1" source="PHDZe1s5qyJXQ7fVR7Sn-25" target="PHDZe1s5qyJXQ7fVR7Sn-22" edge="1">
          <mxGeometry width="50" height="50" relative="1" as="geometry">
            <mxPoint x="660" y="340" as="sourcePoint" />
            <mxPoint x="710" y="290" as="targetPoint" />
          </mxGeometry>
        </mxCell>
        <mxCell id="PHDZe1s5qyJXQ7fVR7Sn-35" value="N" style="edgeStyle=orthogonalEdgeStyle;rounded=0;orthogonalLoop=1;jettySize=auto;html=1;" parent="1" source="PHDZe1s5qyJXQ7fVR7Sn-32" target="PHDZe1s5qyJXQ7fVR7Sn-33" edge="1">
          <mxGeometry relative="1" as="geometry">
            <Array as="points">
              <mxPoint x="310" y="639" />
            </Array>
          </mxGeometry>
        </mxCell>
        <mxCell id="jMFC31TbGM9YnoEHQVQy-44" value="N" style="edgeStyle=orthogonalEdgeStyle;rounded=0;orthogonalLoop=1;jettySize=auto;html=1;entryX=0.5;entryY=1;entryDx=0;entryDy=0;" edge="1" parent="1" source="PHDZe1s5qyJXQ7fVR7Sn-32" target="jMFC31TbGM9YnoEHQVQy-43">
          <mxGeometry relative="1" as="geometry">
            <mxPoint x="-54" y="504" as="targetPoint" />
          </mxGeometry>
        </mxCell>
        <mxCell id="jMFC31TbGM9YnoEHQVQy-124" value="N" style="edgeStyle=orthogonalEdgeStyle;rounded=0;orthogonalLoop=1;jettySize=auto;html=1;entryX=0.011;entryY=0.6;entryDx=0;entryDy=0;entryPerimeter=0;" edge="1" parent="1" source="PHDZe1s5qyJXQ7fVR7Sn-32" target="jMFC31TbGM9YnoEHQVQy-62">
          <mxGeometry relative="1" as="geometry" />
        </mxCell>
        <mxCell id="PHDZe1s5qyJXQ7fVR7Sn-32" value="DoenÃ§a" style="rounded=0;whiteSpace=wrap;html=1;" parent="1" vertex="1">
          <mxGeometry x="-114" y="625" width="120" height="60" as="geometry" />
        </mxCell>
        <mxCell id="PHDZe1s5qyJXQ7fVR7Sn-33" value="Tem" style="rhombus;whiteSpace=wrap;html=1;" parent="1" vertex="1">
          <mxGeometry x="265" y="173" width="90" height="60" as="geometry" />
        </mxCell>
        <mxCell id="PHDZe1s5qyJXQ7fVR7Sn-36" value="&lt;u&gt;Nome DoenÃ§a&lt;/u&gt;" style="ellipse;whiteSpace=wrap;html=1;" parent="1" vertex="1">
          <mxGeometry x="-203" y="742" width="70" height="50" as="geometry" />
        </mxCell>
        <mxCell id="PHDZe1s5qyJXQ7fVR7Sn-37" value="" style="endArrow=none;html=1;entryX=0.5;entryY=1;entryDx=0;entryDy=0;exitX=0.5;exitY=0;exitDx=0;exitDy=0;" parent="1" source="PHDZe1s5qyJXQ7fVR7Sn-36" target="PHDZe1s5qyJXQ7fVR7Sn-32" edge="1">
          <mxGeometry width="50" height="50" relative="1" as="geometry">
            <mxPoint x="520" y="590" as="sourcePoint" />
            <mxPoint x="570" y="540" as="targetPoint" />
          </mxGeometry>
        </mxCell>
        <mxCell id="PHDZe1s5qyJXQ7fVR7Sn-38" value="Gravidade" style="ellipse;whiteSpace=wrap;html=1;" parent="1" vertex="1">
          <mxGeometry x="-101" y="742" width="70" height="50" as="geometry" />
        </mxCell>
        <mxCell id="PHDZe1s5qyJXQ7fVR7Sn-39" value="" style="endArrow=none;html=1;entryX=0.5;entryY=1;entryDx=0;entryDy=0;exitX=0.5;exitY=0;exitDx=0;exitDy=0;" parent="1" source="PHDZe1s5qyJXQ7fVR7Sn-38" target="PHDZe1s5qyJXQ7fVR7Sn-32" edge="1">
          <mxGeometry width="50" height="50" relative="1" as="geometry">
            <mxPoint x="520" y="590" as="sourcePoint" />
            <mxPoint x="570" y="540" as="targetPoint" />
          </mxGeometry>
        </mxCell>
        <mxCell id="jMFC31TbGM9YnoEHQVQy-2" value="Tipo de Ã¡gua" style="ellipse;whiteSpace=wrap;html=1;" vertex="1" parent="1">
          <mxGeometry x="1072" y="-327" width="90" height="50" as="geometry" />
        </mxCell>
        <mxCell id="jMFC31TbGM9YnoEHQVQy-3" value="&lt;u&gt;Tipo de construÃ§Ã£o&lt;/u&gt;" style="ellipse;whiteSpace=wrap;html=1;" vertex="1" parent="1">
          <mxGeometry x="937" y="-327" width="90" height="50" as="geometry" />
        </mxCell>
        <mxCell id="jMFC31TbGM9YnoEHQVQy-4" value="" style="endArrow=none;html=1;entryX=0.5;entryY=0;entryDx=0;entryDy=0;exitX=0.5;exitY=1;exitDx=0;exitDy=0;" edge="1" parent="1" source="jMFC31TbGM9YnoEHQVQy-2" target="jMFC31TbGM9YnoEHQVQy-28">
          <mxGeometry width="50" height="50" relative="1" as="geometry">
            <mxPoint x="660" y="360" as="sourcePoint" />
            <mxPoint x="710" y="310" as="targetPoint" />
          </mxGeometry>
        </mxCell>
        <mxCell id="jMFC31TbGM9YnoEHQVQy-5" value="" style="endArrow=none;html=1;entryX=0.5;entryY=0;entryDx=0;entryDy=0;exitX=0.5;exitY=1;exitDx=0;exitDy=0;" edge="1" parent="1" source="jMFC31TbGM9YnoEHQVQy-3" target="jMFC31TbGM9YnoEHQVQy-28">
          <mxGeometry width="50" height="50" relative="1" as="geometry">
            <mxPoint x="660" y="360" as="sourcePoint" />
            <mxPoint x="710" y="310" as="targetPoint" />
          </mxGeometry>
        </mxCell>
        <mxCell id="jMFC31TbGM9YnoEHQVQy-6" value="Tipo de banheiro" style="ellipse;whiteSpace=wrap;html=1;" vertex="1" parent="1">
          <mxGeometry x="1225" y="-327" width="90" height="50" as="geometry" />
        </mxCell>
        <mxCell id="jMFC31TbGM9YnoEHQVQy-7" value="Esgoto" style="ellipse;whiteSpace=wrap;html=1;" vertex="1" parent="1">
          <mxGeometry x="1366" y="-327" width="90" height="50" as="geometry" />
        </mxCell>
        <mxCell id="jMFC31TbGM9YnoEHQVQy-8" value="" style="endArrow=none;html=1;entryX=0.5;entryY=0;entryDx=0;entryDy=0;exitX=0.5;exitY=1;exitDx=0;exitDy=0;" edge="1" parent="1" source="jMFC31TbGM9YnoEHQVQy-6" target="jMFC31TbGM9YnoEHQVQy-28">
          <mxGeometry width="50" height="50" relative="1" as="geometry">
            <mxPoint x="660" y="360" as="sourcePoint" />
            <mxPoint x="710" y="310" as="targetPoint" />
          </mxGeometry>
        </mxCell>
        <mxCell id="jMFC31TbGM9YnoEHQVQy-9" value="" style="endArrow=none;html=1;entryX=0.5;entryY=0;entryDx=0;entryDy=0;exitX=0.5;exitY=1;exitDx=0;exitDy=0;" edge="1" parent="1" source="jMFC31TbGM9YnoEHQVQy-7" target="jMFC31TbGM9YnoEHQVQy-28">
          <mxGeometry width="50" height="50" relative="1" as="geometry">
            <mxPoint x="660" y="360" as="sourcePoint" />
            <mxPoint x="710" y="310" as="targetPoint" />
          </mxGeometry>
        </mxCell>
        <mxCell id="jMFC31TbGM9YnoEHQVQy-11" value="Quantidade de Animais" style="ellipse;whiteSpace=wrap;html=1;" vertex="1" parent="1">
          <mxGeometry x="1580" y="310" width="90" height="50" as="geometry" />
        </mxCell>
        <mxCell id="jMFC31TbGM9YnoEHQVQy-12" value="" style="endArrow=none;html=1;exitX=0.5;exitY=0;exitDx=0;exitDy=0;entryX=0.5;entryY=1;entryDx=0;entryDy=0;" edge="1" parent="1" source="jMFC31TbGM9YnoEHQVQy-11" target="jMFC31TbGM9YnoEHQVQy-14">
          <mxGeometry width="50" height="50" relative="1" as="geometry">
            <mxPoint x="1643" y="324" as="sourcePoint" />
            <mxPoint x="1501" y="279" as="targetPoint" />
          </mxGeometry>
        </mxCell>
        <mxCell id="jMFC31TbGM9YnoEHQVQy-19" value="N" style="edgeStyle=orthogonalEdgeStyle;rounded=0;orthogonalLoop=1;jettySize=auto;html=1;entryX=1;entryY=0.5;entryDx=0;entryDy=0;" edge="1" parent="1" source="jMFC31TbGM9YnoEHQVQy-14" target="jMFC31TbGM9YnoEHQVQy-15">
          <mxGeometry relative="1" as="geometry" />
        </mxCell>
        <mxCell id="jMFC31TbGM9YnoEHQVQy-14" value="Animais de esticaÃ§Ã£o" style="rounded=0;whiteSpace=wrap;html=1;" vertex="1" parent="1">
          <mxGeometry x="1460" y="200" width="120" height="60" as="geometry" />
        </mxCell>
        <mxCell id="jMFC31TbGM9YnoEHQVQy-15" value="Contem" style="rhombus;whiteSpace=wrap;html=1;" vertex="1" parent="1">
          <mxGeometry x="1310" y="200" width="90" height="60" as="geometry" />
        </mxCell>
        <mxCell id="jMFC31TbGM9YnoEHQVQy-20" value="&lt;u&gt;EspÃ©cie&lt;/u&gt;" style="ellipse;whiteSpace=wrap;html=1;" vertex="1" parent="1">
          <mxGeometry x="1485" y="310" width="70" height="50" as="geometry" />
        </mxCell>
        <mxCell id="jMFC31TbGM9YnoEHQVQy-21" value="" style="endArrow=none;html=1;entryX=0.5;entryY=1;entryDx=0;entryDy=0;exitX=0.5;exitY=0;exitDx=0;exitDy=0;" edge="1" parent="1" source="jMFC31TbGM9YnoEHQVQy-20" target="jMFC31TbGM9YnoEHQVQy-14">
          <mxGeometry width="50" height="50" relative="1" as="geometry">
            <mxPoint x="1210" y="440" as="sourcePoint" />
            <mxPoint x="1260" y="390" as="targetPoint" />
          </mxGeometry>
        </mxCell>
        <mxCell id="jMFC31TbGM9YnoEHQVQy-23" value="Cor" style="ellipse;whiteSpace=wrap;html=1;" vertex="1" parent="1">
          <mxGeometry x="509" y="-139" width="70" height="50" as="geometry" />
        </mxCell>
        <mxCell id="jMFC31TbGM9YnoEHQVQy-24" value="" style="endArrow=none;html=1;exitX=0.5;exitY=1;exitDx=0;exitDy=0;entryX=0.5;entryY=0;entryDx=0;entryDy=0;" edge="1" parent="1" source="jMFC31TbGM9YnoEHQVQy-23" target="PHDZe1s5qyJXQ7fVR7Sn-1">
          <mxGeometry width="50" height="50" relative="1" as="geometry">
            <mxPoint x="510" y="240" as="sourcePoint" />
            <mxPoint x="560" y="190" as="targetPoint" />
          </mxGeometry>
        </mxCell>
        <mxCell id="jMFC31TbGM9YnoEHQVQy-25" value="Estado Civil" style="ellipse;whiteSpace=wrap;html=1;" vertex="1" parent="1">
          <mxGeometry x="599" y="-139" width="70" height="50" as="geometry" />
        </mxCell>
        <mxCell id="jMFC31TbGM9YnoEHQVQy-26" value="" style="endArrow=none;html=1;exitX=0.5;exitY=1;exitDx=0;exitDy=0;entryX=0.5;entryY=0;entryDx=0;entryDy=0;" edge="1" parent="1" source="jMFC31TbGM9YnoEHQVQy-25" target="PHDZe1s5qyJXQ7fVR7Sn-1">
          <mxGeometry width="50" height="50" relative="1" as="geometry">
            <mxPoint x="510" y="240" as="sourcePoint" />
            <mxPoint x="560" y="190" as="targetPoint" />
          </mxGeometry>
        </mxCell>
        <mxCell id="jMFC31TbGM9YnoEHQVQy-32" value="N" style="edgeStyle=orthogonalEdgeStyle;rounded=0;orthogonalLoop=1;jettySize=auto;html=1;entryX=0.5;entryY=0;entryDx=0;entryDy=0;" edge="1" parent="1" source="jMFC31TbGM9YnoEHQVQy-28" target="jMFC31TbGM9YnoEHQVQy-30">
          <mxGeometry relative="1" as="geometry" />
        </mxCell>
        <mxCell id="jMFC31TbGM9YnoEHQVQy-28" value="Estrutura" style="rounded=0;whiteSpace=wrap;html=1;" vertex="1" parent="1">
          <mxGeometry x="1110" y="-199" width="120" height="60" as="geometry" />
        </mxCell>
        <mxCell id="jMFC31TbGM9YnoEHQVQy-30" value="Tem" style="rhombus;whiteSpace=wrap;html=1;" vertex="1" parent="1">
          <mxGeometry x="1125" y="-8" width="90" height="60" as="geometry" />
        </mxCell>
        <mxCell id="jMFC31TbGM9YnoEHQVQy-33" value="Escolaridade" style="ellipse;whiteSpace=wrap;html=1;" vertex="1" parent="1">
          <mxGeometry x="693" y="-139" width="94" height="50" as="geometry" />
        </mxCell>
        <mxCell id="jMFC31TbGM9YnoEHQVQy-34" value="" style="endArrow=none;html=1;exitX=0.5;exitY=1;exitDx=0;exitDy=0;entryX=0.5;entryY=0;entryDx=0;entryDy=0;" edge="1" parent="1" source="jMFC31TbGM9YnoEHQVQy-33" target="PHDZe1s5qyJXQ7fVR7Sn-1">
          <mxGeometry width="50" height="50" relative="1" as="geometry">
            <mxPoint x="510" y="240" as="sourcePoint" />
            <mxPoint x="560" y="190" as="targetPoint" />
          </mxGeometry>
        </mxCell>
        <mxCell id="jMFC31TbGM9YnoEHQVQy-46" value="N" style="edgeStyle=orthogonalEdgeStyle;rounded=0;orthogonalLoop=1;jettySize=auto;html=1;" edge="1" parent="1" source="jMFC31TbGM9YnoEHQVQy-35" target="jMFC31TbGM9YnoEHQVQy-43">
          <mxGeometry relative="1" as="geometry" />
        </mxCell>
        <mxCell id="jMFC31TbGM9YnoEHQVQy-101" value="N" style="edgeStyle=orthogonalEdgeStyle;rounded=0;orthogonalLoop=1;jettySize=auto;html=1;" edge="1" parent="1" source="jMFC31TbGM9YnoEHQVQy-35" target="jMFC31TbGM9YnoEHQVQy-97">
          <mxGeometry relative="1" as="geometry" />
        </mxCell>
        <mxCell id="jMFC31TbGM9YnoEHQVQy-35" value="Trabalho" style="rounded=0;whiteSpace=wrap;html=1;" vertex="1" parent="1">
          <mxGeometry x="-114" y="200" width="120" height="60" as="geometry" />
        </mxCell>
        <mxCell id="jMFC31TbGM9YnoEHQVQy-43" value="Causada" style="rhombus;whiteSpace=wrap;html=1;" vertex="1" parent="1">
          <mxGeometry x="-99" y="395" width="90" height="60" as="geometry" />
        </mxCell>
        <mxCell id="jMFC31TbGM9YnoEHQVQy-47" value="&lt;u&gt;ID Trabalho&lt;/u&gt;" style="ellipse;whiteSpace=wrap;html=1;" vertex="1" parent="1">
          <mxGeometry x="-186" y="101" width="70" height="50" as="geometry" />
        </mxCell>
        <mxCell id="jMFC31TbGM9YnoEHQVQy-48" value="Carga Horaria" style="ellipse;whiteSpace=wrap;html=1;" vertex="1" parent="1">
          <mxGeometry x="-89" y="101" width="70" height="50" as="geometry" />
        </mxCell>
        <mxCell id="jMFC31TbGM9YnoEHQVQy-49" value="" style="endArrow=none;html=1;entryX=0.5;entryY=0;entryDx=0;entryDy=0;exitX=0.5;exitY=1;exitDx=0;exitDy=0;" edge="1" parent="1" source="jMFC31TbGM9YnoEHQVQy-47" target="jMFC31TbGM9YnoEHQVQy-35">
          <mxGeometry width="50" height="50" relative="1" as="geometry">
            <mxPoint x="206" y="322" as="sourcePoint" />
            <mxPoint x="256" y="272" as="targetPoint" />
          </mxGeometry>
        </mxCell>
        <mxCell id="jMFC31TbGM9YnoEHQVQy-50" value="" style="endArrow=none;html=1;entryX=0.5;entryY=0;entryDx=0;entryDy=0;exitX=0.5;exitY=1;exitDx=0;exitDy=0;" edge="1" parent="1" source="jMFC31TbGM9YnoEHQVQy-48" target="jMFC31TbGM9YnoEHQVQy-35">
          <mxGeometry width="50" height="50" relative="1" as="geometry">
            <mxPoint x="206" y="322" as="sourcePoint" />
            <mxPoint x="256" y="272" as="targetPoint" />
          </mxGeometry>
        </mxCell>
        <mxCell id="jMFC31TbGM9YnoEHQVQy-51" value="SalÃ¡rio" style="ellipse;whiteSpace=wrap;html=1;" vertex="1" parent="1">
          <mxGeometry x="8" y="101" width="70" height="50" as="geometry" />
        </mxCell>
        <mxCell id="jMFC31TbGM9YnoEHQVQy-52" value="" style="endArrow=none;html=1;entryX=0.5;entryY=0;entryDx=0;entryDy=0;exitX=0.5;exitY=1;exitDx=0;exitDy=0;" edge="1" parent="1" source="jMFC31TbGM9YnoEHQVQy-51" target="jMFC31TbGM9YnoEHQVQy-35">
          <mxGeometry width="50" height="50" relative="1" as="geometry">
            <mxPoint x="206" y="322" as="sourcePoint" />
            <mxPoint x="256" y="272" as="targetPoint" />
          </mxGeometry>
        </mxCell>
        <mxCell id="jMFC31TbGM9YnoEHQVQy-56" value="N" style="edgeStyle=orthogonalEdgeStyle;rounded=0;orthogonalLoop=1;jettySize=auto;html=1;entryX=0.5;entryY=1;entryDx=0;entryDy=0;" edge="1" parent="1" source="jMFC31TbGM9YnoEHQVQy-53" target="jMFC31TbGM9YnoEHQVQy-100">
          <mxGeometry x="-0.8828" relative="1" as="geometry">
            <Array as="points">
              <mxPoint x="483" y="230" />
              <mxPoint x="492" y="230" />
            </Array>
            <mxPoint as="offset" />
          </mxGeometry>
        </mxCell>
        <mxCell id="jMFC31TbGM9YnoEHQVQy-53" value="Deficiencia" style="rounded=0;whiteSpace=wrap;html=1;" vertex="1" parent="1">
          <mxGeometry x="423" y="351" width="120" height="60" as="geometry" />
        </mxCell>
        <mxCell id="jMFC31TbGM9YnoEHQVQy-54" value="&lt;u&gt;ID Deficiencia&lt;/u&gt;" style="ellipse;whiteSpace=wrap;html=1;" vertex="1" parent="1">
          <mxGeometry x="390" y="457" width="70" height="50" as="geometry" />
        </mxCell>
        <mxCell id="jMFC31TbGM9YnoEHQVQy-55" value="" style="endArrow=none;html=1;entryX=0.5;entryY=1;entryDx=0;entryDy=0;exitX=0.5;exitY=0;exitDx=0;exitDy=0;" edge="1" parent="1" source="jMFC31TbGM9YnoEHQVQy-54" target="jMFC31TbGM9YnoEHQVQy-53">
          <mxGeometry width="50" height="50" relative="1" as="geometry">
            <mxPoint x="595" y="371" as="sourcePoint" />
            <mxPoint x="645" y="321" as="targetPoint" />
          </mxGeometry>
        </mxCell>
        <mxCell id="jMFC31TbGM9YnoEHQVQy-58" value="N" style="edgeStyle=orthogonalEdgeStyle;rounded=0;orthogonalLoop=1;jettySize=auto;html=1;entryX=0.5;entryY=1;entryDx=0;entryDy=0;" edge="1" parent="1" source="jMFC31TbGM9YnoEHQVQy-57" target="jMFC31TbGM9YnoEHQVQy-105">
          <mxGeometry x="-0.9245" relative="1" as="geometry">
            <Array as="points">
              <mxPoint x="693" y="511" />
              <mxPoint x="619" y="511" />
            </Array>
            <mxPoint as="offset" />
          </mxGeometry>
        </mxCell>
        <mxCell id="jMFC31TbGM9YnoEHQVQy-61" value="N" style="edgeStyle=orthogonalEdgeStyle;rounded=0;orthogonalLoop=1;jettySize=auto;html=1;entryX=0.5;entryY=1;entryDx=0;entryDy=0;" edge="1" parent="1" source="jMFC31TbGM9YnoEHQVQy-57" target="jMFC31TbGM9YnoEHQVQy-122">
          <mxGeometry relative="1" as="geometry" />
        </mxCell>
        <mxCell id="jMFC31TbGM9YnoEHQVQy-63" value="N" style="edgeStyle=orthogonalEdgeStyle;rounded=0;orthogonalLoop=1;jettySize=auto;html=1;entryX=1;entryY=0.5;entryDx=0;entryDy=0;" edge="1" parent="1" source="jMFC31TbGM9YnoEHQVQy-57" target="jMFC31TbGM9YnoEHQVQy-62">
          <mxGeometry relative="1" as="geometry" />
        </mxCell>
        <mxCell id="jMFC31TbGM9YnoEHQVQy-128" value="N" style="edgeStyle=orthogonalEdgeStyle;rounded=0;orthogonalLoop=1;jettySize=auto;html=1;entryX=1;entryY=0.5;entryDx=0;entryDy=0;" edge="1" parent="1" source="jMFC31TbGM9YnoEHQVQy-57" target="jMFC31TbGM9YnoEHQVQy-125">
          <mxGeometry relative="1" as="geometry">
            <Array as="points">
              <mxPoint x="441" y="912" />
              <mxPoint x="441" y="1052" />
            </Array>
          </mxGeometry>
        </mxCell>
        <mxCell id="jMFC31TbGM9YnoEHQVQy-57" value="Plano de saÃºde" style="rounded=0;whiteSpace=wrap;html=1;" vertex="1" parent="1">
          <mxGeometry x="619" y="860" width="120" height="60" as="geometry" />
        </mxCell>
        <mxCell id="jMFC31TbGM9YnoEHQVQy-59" value="&lt;u&gt;ID Plano&lt;/u&gt;" style="ellipse;whiteSpace=wrap;html=1;" vertex="1" parent="1">
          <mxGeometry x="503.5" y="975" width="70" height="50" as="geometry" />
        </mxCell>
        <mxCell id="jMFC31TbGM9YnoEHQVQy-60" value="" style="endArrow=none;html=1;exitX=0.5;exitY=1;exitDx=0;exitDy=0;entryX=0.5;entryY=0;entryDx=0;entryDy=0;" edge="1" parent="1" source="jMFC31TbGM9YnoEHQVQy-57" target="jMFC31TbGM9YnoEHQVQy-59">
          <mxGeometry width="50" height="50" relative="1" as="geometry">
            <mxPoint x="569" y="486" as="sourcePoint" />
            <mxPoint x="619" y="436" as="targetPoint" />
          </mxGeometry>
        </mxCell>
        <mxCell id="jMFC31TbGM9YnoEHQVQy-62" value="Cobre" style="rhombus;whiteSpace=wrap;html=1;" vertex="1" parent="1">
          <mxGeometry x="271" y="860" width="90" height="60" as="geometry" />
        </mxCell>
        <mxCell id="jMFC31TbGM9YnoEHQVQy-65" value="Numero de cobertos" style="ellipse;whiteSpace=wrap;html=1;" vertex="1" parent="1">
          <mxGeometry x="599.5" y="975" width="70" height="50" as="geometry" />
        </mxCell>
        <mxCell id="jMFC31TbGM9YnoEHQVQy-66" value="" style="endArrow=none;html=1;exitX=0.5;exitY=1;exitDx=0;exitDy=0;entryX=0.5;entryY=0;entryDx=0;entryDy=0;" edge="1" parent="1" source="jMFC31TbGM9YnoEHQVQy-57" target="jMFC31TbGM9YnoEHQVQy-65">
          <mxGeometry width="50" height="50" relative="1" as="geometry">
            <mxPoint x="569" y="486" as="sourcePoint" />
            <mxPoint x="619" y="436" as="targetPoint" />
          </mxGeometry>
        </mxCell>
        <mxCell id="jMFC31TbGM9YnoEHQVQy-67" value="Qualidade" style="ellipse;whiteSpace=wrap;html=1;" vertex="1" parent="1">
          <mxGeometry x="695.5" y="975" width="70" height="50" as="geometry" />
        </mxCell>
        <mxCell id="jMFC31TbGM9YnoEHQVQy-68" value="" style="endArrow=none;html=1;exitX=0.5;exitY=1;exitDx=0;exitDy=0;entryX=0.5;entryY=0;entryDx=0;entryDy=0;" edge="1" parent="1" source="jMFC31TbGM9YnoEHQVQy-57" target="jMFC31TbGM9YnoEHQVQy-67">
          <mxGeometry width="50" height="50" relative="1" as="geometry">
            <mxPoint x="569" y="486" as="sourcePoint" />
            <mxPoint x="619" y="436" as="targetPoint" />
          </mxGeometry>
        </mxCell>
        <mxCell id="jMFC31TbGM9YnoEHQVQy-69" value="PreÃ§o" style="ellipse;whiteSpace=wrap;html=1;" vertex="1" parent="1">
          <mxGeometry x="784.5" y="975" width="70" height="50" as="geometry" />
        </mxCell>
        <mxCell id="jMFC31TbGM9YnoEHQVQy-70" value="" style="endArrow=none;html=1;exitX=0.5;exitY=1;exitDx=0;exitDy=0;entryX=0.5;entryY=0;entryDx=0;entryDy=0;" edge="1" parent="1" source="jMFC31TbGM9YnoEHQVQy-57" target="jMFC31TbGM9YnoEHQVQy-69">
          <mxGeometry width="50" height="50" relative="1" as="geometry">
            <mxPoint x="569" y="486" as="sourcePoint" />
            <mxPoint x="619" y="436" as="targetPoint" />
          </mxGeometry>
        </mxCell>
        <mxCell id="jMFC31TbGM9YnoEHQVQy-71" value="Dias contaminado" style="ellipse;whiteSpace=wrap;html=1;" vertex="1" parent="1">
          <mxGeometry x="6" y="742" width="94" height="50" as="geometry" />
        </mxCell>
        <mxCell id="jMFC31TbGM9YnoEHQVQy-74" value="" style="endArrow=none;html=1;entryX=0.5;entryY=1;entryDx=0;entryDy=0;exitX=0.5;exitY=0;exitDx=0;exitDy=0;" edge="1" parent="1" source="jMFC31TbGM9YnoEHQVQy-71" target="PHDZe1s5qyJXQ7fVR7Sn-32">
          <mxGeometry width="50" height="50" relative="1" as="geometry">
            <mxPoint x="520" y="590" as="sourcePoint" />
            <mxPoint x="570" y="540" as="targetPoint" />
          </mxGeometry>
        </mxCell>
        <mxCell id="jMFC31TbGM9YnoEHQVQy-76" value="Equipamento Auxiliar" style="ellipse;whiteSpace=wrap;html=1;" vertex="1" parent="1">
          <mxGeometry x="491" y="455" width="86" height="50" as="geometry" />
        </mxCell>
        <mxCell id="jMFC31TbGM9YnoEHQVQy-77" value="" style="endArrow=none;html=1;entryX=0.5;entryY=1;entryDx=0;entryDy=0;exitX=0.5;exitY=0;exitDx=0;exitDy=0;" edge="1" parent="1" source="jMFC31TbGM9YnoEHQVQy-76" target="jMFC31TbGM9YnoEHQVQy-53">
          <mxGeometry width="50" height="50" relative="1" as="geometry">
            <mxPoint x="595" y="371" as="sourcePoint" />
            <mxPoint x="645" y="321" as="targetPoint" />
          </mxGeometry>
        </mxCell>
        <mxCell id="jMFC31TbGM9YnoEHQVQy-82" value="N" style="edgeStyle=orthogonalEdgeStyle;rounded=0;orthogonalLoop=1;jettySize=auto;html=1;" edge="1" parent="1" source="jMFC31TbGM9YnoEHQVQy-78" target="jMFC31TbGM9YnoEHQVQy-80">
          <mxGeometry relative="1" as="geometry" />
        </mxCell>
        <mxCell id="jMFC31TbGM9YnoEHQVQy-88" style="edgeStyle=orthogonalEdgeStyle;rounded=0;orthogonalLoop=1;jettySize=auto;html=1;entryX=0.5;entryY=1;entryDx=0;entryDy=0;" edge="1" parent="1" source="jMFC31TbGM9YnoEHQVQy-78" target="jMFC31TbGM9YnoEHQVQy-119">
          <mxGeometry relative="1" as="geometry">
            <Array as="points">
              <mxPoint x="-400" y="-10" />
              <mxPoint x="-400" y="1123" />
              <mxPoint x="1479" y="1123" />
            </Array>
          </mxGeometry>
        </mxCell>
        <mxCell id="jMFC31TbGM9YnoEHQVQy-93" value="N" style="edgeStyle=orthogonalEdgeStyle;rounded=0;orthogonalLoop=1;jettySize=auto;html=1;entryX=0;entryY=0.5;entryDx=0;entryDy=0;" edge="1" parent="1" source="jMFC31TbGM9YnoEHQVQy-78" target="jMFC31TbGM9YnoEHQVQy-125">
          <mxGeometry relative="1" as="geometry">
            <mxPoint x="316" y="945" as="targetPoint" />
            <Array as="points">
              <mxPoint x="-307" y="10" />
              <mxPoint x="-307" y="1044" />
              <mxPoint x="173" y="1044" />
            </Array>
          </mxGeometry>
        </mxCell>
        <mxCell id="jMFC31TbGM9YnoEHQVQy-78" value="Atendimento de SaÃºde" style="rounded=0;whiteSpace=wrap;html=1;" vertex="1" parent="1">
          <mxGeometry x="-126" y="-40" width="120" height="60" as="geometry" />
        </mxCell>
        <mxCell id="jMFC31TbGM9YnoEHQVQy-80" value="Procura" style="rhombus;whiteSpace=wrap;html=1;" vertex="1" parent="1">
          <mxGeometry x="129" y="-40" width="90" height="60" as="geometry" />
        </mxCell>
        <mxCell id="jMFC31TbGM9YnoEHQVQy-84" value="&lt;u&gt;Unidade de atendimento&lt;/u&gt;" style="ellipse;whiteSpace=wrap;html=1;" vertex="1" parent="1">
          <mxGeometry x="-302" y="-167" width="98" height="50" as="geometry" />
        </mxCell>
        <mxCell id="jMFC31TbGM9YnoEHQVQy-85" value="" style="endArrow=none;html=1;entryX=0.5;entryY=0;entryDx=0;entryDy=0;exitX=0.5;exitY=1;exitDx=0;exitDy=0;" edge="1" parent="1" source="jMFC31TbGM9YnoEHQVQy-84" target="jMFC31TbGM9YnoEHQVQy-78">
          <mxGeometry width="50" height="50" relative="1" as="geometry">
            <mxPoint x="14" y="62" as="sourcePoint" />
            <mxPoint x="64" y="12" as="targetPoint" />
          </mxGeometry>
        </mxCell>
        <mxCell id="jMFC31TbGM9YnoEHQVQy-86" value="FrequÃªncia da procura" style="ellipse;whiteSpace=wrap;html=1;" vertex="1" parent="1">
          <mxGeometry x="-181" y="-167" width="70" height="50" as="geometry" />
        </mxCell>
        <mxCell id="jMFC31TbGM9YnoEHQVQy-87" value="" style="endArrow=none;html=1;entryX=0.5;entryY=0;entryDx=0;entryDy=0;exitX=0.5;exitY=1;exitDx=0;exitDy=0;" edge="1" parent="1" source="jMFC31TbGM9YnoEHQVQy-86" target="jMFC31TbGM9YnoEHQVQy-78">
          <mxGeometry width="50" height="50" relative="1" as="geometry">
            <mxPoint x="14" y="62" as="sourcePoint" />
            <mxPoint x="64" y="12" as="targetPoint" />
          </mxGeometry>
        </mxCell>
        <mxCell id="jMFC31TbGM9YnoEHQVQy-89" value="Tipo de Atendimento" style="ellipse;whiteSpace=wrap;html=1;" vertex="1" parent="1">
          <mxGeometry x="-84" y="-167" width="88" height="50" as="geometry" />
        </mxCell>
        <mxCell id="jMFC31TbGM9YnoEHQVQy-90" value="" style="endArrow=none;html=1;entryX=0.5;entryY=0;entryDx=0;entryDy=0;exitX=0.5;exitY=1;exitDx=0;exitDy=0;" edge="1" parent="1" source="jMFC31TbGM9YnoEHQVQy-89" target="jMFC31TbGM9YnoEHQVQy-78">
          <mxGeometry width="50" height="50" relative="1" as="geometry">
            <mxPoint x="14" y="62" as="sourcePoint" />
            <mxPoint x="64" y="12" as="targetPoint" />
          </mxGeometry>
        </mxCell>
        <mxCell id="jMFC31TbGM9YnoEHQVQy-91" value="Tempo de internaÃ§Ã£o" style="ellipse;whiteSpace=wrap;html=1;" vertex="1" parent="1">
          <mxGeometry x="24" y="-167" width="88" height="50" as="geometry" />
        </mxCell>
        <mxCell id="jMFC31TbGM9YnoEHQVQy-92" value="" style="endArrow=none;html=1;entryX=0.5;entryY=0;entryDx=0;entryDy=0;exitX=0.5;exitY=1;exitDx=0;exitDy=0;" edge="1" parent="1" source="jMFC31TbGM9YnoEHQVQy-91" target="jMFC31TbGM9YnoEHQVQy-78">
          <mxGeometry width="50" height="50" relative="1" as="geometry">
            <mxPoint x="14" y="62" as="sourcePoint" />
            <mxPoint x="64" y="12" as="targetPoint" />
          </mxGeometry>
        </mxCell>
        <mxCell id="jMFC31TbGM9YnoEHQVQy-108" value="N" style="edgeStyle=orthogonalEdgeStyle;rounded=0;orthogonalLoop=1;jettySize=auto;html=1;entryX=0.5;entryY=0;entryDx=0;entryDy=0;" edge="1" parent="1" source="jMFC31TbGM9YnoEHQVQy-94" target="jMFC31TbGM9YnoEHQVQy-96">
          <mxGeometry relative="1" as="geometry" />
        </mxCell>
        <mxCell id="jMFC31TbGM9YnoEHQVQy-94" value="Estilo de vida" style="rounded=0;whiteSpace=wrap;html=1;" vertex="1" parent="1">
          <mxGeometry x="390" y="-399" width="120" height="60" as="geometry" />
        </mxCell>
        <mxCell id="jMFC31TbGM9YnoEHQVQy-96" value="Tem" style="rhombus;whiteSpace=wrap;html=1;" vertex="1" parent="1">
          <mxGeometry x="405" y="-277" width="90" height="60" as="geometry" />
        </mxCell>
        <mxCell id="jMFC31TbGM9YnoEHQVQy-97" value="Tem" style="rhombus;whiteSpace=wrap;html=1;" vertex="1" parent="1">
          <mxGeometry x="114" y="173" width="90" height="60" as="geometry" />
        </mxCell>
        <mxCell id="jMFC31TbGM9YnoEHQVQy-100" value="Tem" style="rhombus;whiteSpace=wrap;html=1;" vertex="1" parent="1">
          <mxGeometry x="447" y="134" width="90" height="60" as="geometry" />
        </mxCell>
        <mxCell id="jMFC31TbGM9YnoEHQVQy-105" value="Tem" style="rhombus;whiteSpace=wrap;html=1;" vertex="1" parent="1">
          <mxGeometry x="573.5" y="321" width="90" height="60" as="geometry" />
        </mxCell>
        <mxCell id="jMFC31TbGM9YnoEHQVQy-109" value="&lt;u&gt;ID Estilo&lt;/u&gt;" style="ellipse;whiteSpace=wrap;html=1;" vertex="1" parent="1">
          <mxGeometry x="227" y="-496" width="70" height="50" as="geometry" />
        </mxCell>
        <mxCell id="jMFC31TbGM9YnoEHQVQy-110" value="" style="endArrow=none;html=1;entryX=0.5;entryY=0;entryDx=0;entryDy=0;exitX=0.5;exitY=1;exitDx=0;exitDy=0;" edge="1" parent="1" source="jMFC31TbGM9YnoEHQVQy-109" target="jMFC31TbGM9YnoEHQVQy-94">
          <mxGeometry width="50" height="50" relative="1" as="geometry">
            <mxPoint x="448" y="-338" as="sourcePoint" />
            <mxPoint x="498" y="-388" as="targetPoint" />
          </mxGeometry>
        </mxCell>
        <mxCell id="jMFC31TbGM9YnoEHQVQy-111" value="AlimentaÃ§Ã£o" style="ellipse;whiteSpace=wrap;html=1;" vertex="1" parent="1">
          <mxGeometry x="324" y="-499" width="91" height="50" as="geometry" />
        </mxCell>
        <mxCell id="jMFC31TbGM9YnoEHQVQy-112" value="" style="endArrow=none;html=1;entryX=0.5;entryY=0;entryDx=0;entryDy=0;" edge="1" parent="1" source="jMFC31TbGM9YnoEHQVQy-111" target="jMFC31TbGM9YnoEHQVQy-94">
          <mxGeometry width="50" height="50" relative="1" as="geometry">
            <mxPoint x="448" y="-338" as="sourcePoint" />
            <mxPoint x="498" y="-388" as="targetPoint" />
          </mxGeometry>
        </mxCell>
        <mxCell id="jMFC31TbGM9YnoEHQVQy-115" value="" style="endArrow=none;html=1;entryX=0.5;entryY=0;entryDx=0;entryDy=0;exitX=0.5;exitY=1;exitDx=0;exitDy=0;" edge="1" parent="1" source="jMFC31TbGM9YnoEHQVQy-114" target="jMFC31TbGM9YnoEHQVQy-94">
          <mxGeometry width="50" height="50" relative="1" as="geometry">
            <mxPoint x="448" y="-338" as="sourcePoint" />
            <mxPoint x="498" y="-388" as="targetPoint" />
          </mxGeometry>
        </mxCell>
        <mxCell id="jMFC31TbGM9YnoEHQVQy-116" value="" style="ellipse;whiteSpace=wrap;html=1;shadow=0;sketch=0;gradientColor=#ffffff;" vertex="1" parent="1">
          <mxGeometry x="425" y="-503.5" width="82" height="65" as="geometry" />
        </mxCell>
        <mxCell id="jMFC31TbGM9YnoEHQVQy-114" value="Vicios" style="ellipse;whiteSpace=wrap;html=1;gradientColor=#ffffff;sketch=0;shadow=0;perimeterSpacing=0;" vertex="1" parent="1">
          <mxGeometry x="433" y="-495.5" width="66" height="50" as="geometry" />
        </mxCell>
        <mxCell id="jMFC31TbGM9YnoEHQVQy-117" value="Peso" style="ellipse;whiteSpace=wrap;html=1;" vertex="1" parent="1">
          <mxGeometry x="554" y="-496" width="70" height="50" as="geometry" />
        </mxCell>
        <mxCell id="jMFC31TbGM9YnoEHQVQy-118" value="" style="endArrow=none;html=1;entryX=0.5;entryY=0;entryDx=0;entryDy=0;exitX=0.5;exitY=1;exitDx=0;exitDy=0;" edge="1" parent="1" source="jMFC31TbGM9YnoEHQVQy-117" target="jMFC31TbGM9YnoEHQVQy-94">
          <mxGeometry width="50" height="50" relative="1" as="geometry">
            <mxPoint x="448" y="-338" as="sourcePoint" />
            <mxPoint x="498" y="-388" as="targetPoint" />
          </mxGeometry>
        </mxCell>
        <mxCell id="jMFC31TbGM9YnoEHQVQy-119" value="EstÃ¡" style="rhombus;whiteSpace=wrap;html=1;" vertex="1" parent="1">
          <mxGeometry x="1434" y="818" width="90" height="60" as="geometry" />
        </mxCell>
        <mxCell id="jMFC31TbGM9YnoEHQVQy-122" value="EstÃ¡" style="rhombus;whiteSpace=wrap;html=1;" vertex="1" parent="1">
          <mxGeometry x="822" y="570" width="90" height="60" as="geometry" />
        </mxCell>
        <mxCell id="jMFC31TbGM9YnoEHQVQy-125" value="Cobre" style="rhombus;whiteSpace=wrap;html=1;" vertex="1" parent="1">
          <mxGeometry x="173" y="1022" width="90" height="60" as="geometry" />
        </mxCell>
      </root>
    </mxGraphModel>
  </diagram>
</mxfile>
